<?xml version="1.0" encoding="utf-8"?>
<!-- Generator: Adobe Illustrator 24.0.1, SVG Export Plug-In . SVG Version: 6.00 Build 0)  -->
<svg version="1.1" id="Layer_1" xmlns="http://www.w3.org/2000/svg" xmlns:xlink="http://www.w3.org/1999/xlink" x="0px" y="0px"
	 viewBox="0 0 2500 677" style="enable-background:new 0 0 2500 677;" xml:space="preserve">
<style type="text/css">
	.st0{fill:#E50914;}
</style>
<g>
	<g>
		<path class="st0" d="M103.1,181.9c-0.7,0-1.1,0-1.8,0.1c-0.1,151.5-0.2,303.1-0.4,454.6c-30.1,4.4-60.2,8.9-90.2,13.6
			c0-213.7,0-427.5,0-641.2c42.1,0,84.3,0,126.4,0c33.1,121.7,66.8,243.2,101.1,364.6c0.7-0.1,1.1-0.1,1.8-0.1
			c0.2-121.5,0.4-242.9,0.6-364.4c29.9,0,59.8,0,89.8,0c-0.4,199.3-0.8,398.6-1.3,598c-34.4,4-68.9,8.2-103.2,12.6
			C184.1,473.8,143.2,328,103.1,181.9z"/>
		<path class="st0" d="M518.5,252.6c46.1-1.8,92.2-3.4,138.4-4.8c-0.1,27-0.1,54-0.2,81c-46.1,2-92.2,4.1-138.4,6.5
			c-0.1,56.5-0.3,112.9-0.4,169.4c58-4.5,116.1-8.5,174.1-12.1c-0.1,26.9-0.1,53.7-0.2,80.6c-91.7,6.5-183.4,14.5-274.9,24
			c0.5-196.1,0.9-392.2,1.4-588.3c91.6,0,183.2,0,274.8,0c-0.1,26.9-0.1,53.7-0.2,80.6c-58,0.6-116,1.3-174.1,2
			C518.8,145.2,518.7,198.9,518.5,252.6z"/>
		<path class="st0" d="M741.8,8.9c103.8,0,207.6,0,311.5,0c0,26.1-0.1,52.1-0.1,78.2c-35.1,0.1-70.3,0.3-105.4,0.5
			c-0.2,157.3-0.5,314.6-0.7,471.9c-33.7,1.3-67.3,2.8-101,4.5c0.3-158.6,0.6-317.2,0.9-475.8c-35.1,0.3-70.2,0.5-105.4,0.9
			C741.6,62.3,741.7,35.6,741.8,8.9z"/>
		<path class="st0" d="M1213.5,251c43.4-0.1,86.8,0,130.3,0.2c0,26,0,51.9,0,77.9c-43.4-0.3-86.9-0.4-130.3-0.3c0,75,0,150,0,225
			c-33.7,0.2-67.4,0.6-101.1,1.1c0.1-182,0.3-364,0.4-546c88.9,0,177.7,0,266.6,0c0,26,0,52,0.1,78c-55.3-0.1-110.6-0.2-165.9-0.1
			C1213.5,141.5,1213.5,196.2,1213.5,251z"/>
		<path class="st0" d="M1443.4,8.9c33.6,0,67.2,0,100.8,0c0.2,157.2,0.5,314.4,0.7,471.6c55.4,1.8,110.8,4,166.1,6.7
			c0.1,26.6,0.1,53.1,0.2,79.7c-89-5-178.1-8.6-267.2-10.8C1443.8,373.6,1443.6,191.2,1443.4,8.9z"/>
		<path class="st0" d="M1865.7,8.9c0.4,146.2,0.7,292.3,1.1,438.5c-0.1,33.7,18.8,56.1,52.4,58.8c33.9,2.8,52.5-19,52.1-52.1
			c-0.4-148.4-0.8-296.8-1.1-445.2c31.8,0,63.5,0,95.3,0c0.4,148.8,0.7,297.6,1.1,446.4c0.1,37.9-8.5,78.9-37.7,105.3
			c-30.1,27.1-73.5,31.3-112.1,28c-87.8-7.4-150.6-61.1-150.7-152.3c-0.3-142.5-0.7-284.9-1-427.4C1798.6,8.9,1832.2,8.9,1865.7,8.9
			z"/>
		<path class="st0" d="M2485.9,8.9c-34.4,101.3-69.4,202.5-105.1,303.3c38.5,112.3,75.9,224.9,112.4,337.9
			c-35.2-5.5-70.4-10.7-105.7-15.8c-26.7-84.9-53.9-169.7-81.6-254.2c-0.7-0.1-1.1-0.1-1.8-0.1c-26.9,77.6-54.2,155.2-81.8,232.6
			c-31.4-3.8-62.8-7.4-94.2-10.9c37.9-99.2,75.2-198.7,111.9-298.4c-34.6-98.3-69.9-196.4-105.9-294.3c34.8,0,69.6,0,104.4,0
			c25.5,75.5,50.7,151.1,75.4,226.8c0.7,0,1.1,0.1,1.8,0.1c25.9-75.5,51.4-151.1,76.6-226.9C2423.6,8.9,2454.8,8.9,2485.9,8.9z"/>
	</g>
</g>
</svg>
